<mxfile host="app.diagrams.net" modified="2023-12-05T21:34:18.950Z" agent="Mozilla/5.0 (Windows NT 10.0; Win64; x64) AppleWebKit/537.36 (KHTML, like Gecko) Chrome/118.0.0.0 Safari/537.36 OPR/104.0.0.0" etag="ZIBdubmFQbB0VBymr3U5" version="22.1.5" type="google">
  <diagram id="94qIOTPvQQrvGhQPSMqn" name="Pagina-1">
    <mxGraphModel grid="1" page="1" gridSize="13.779499999999999" guides="1" tooltips="1" connect="1" arrows="1" fold="1" pageScale="1.5" pageWidth="1169" pageHeight="826" background="none" math="0" shadow="0">
      <root>
        <mxCell id="0" style=";html=1;" />
        <mxCell id="1" style=";html=1;" parent="0" />
        <mxCell id="1516e18e63f93b96-1" value="&lt;table style=&quot;width: 100%; height: 100%; border-collapse: collapse; font-size: 20px; background-color: rgb(255, 255, 255); border: 1px solid rgb(167, 201, 66);&quot; cellpadding=&quot;4&quot; width=&quot;100%&quot; border=&quot;1&quot;&gt;&lt;tbody style=&quot;font-size: 20px;&quot;&gt;&lt;tr style=&quot;background-color: rgb(167, 201, 66); color: rgb(255, 255, 255); font-size: 20px;&quot;&gt;&lt;th border=&quot;1&quot; style=&quot;font-size: 20px; border: 1px solid rgb(167, 201, 66); border-collapse: collapse;&quot;&gt;ID&lt;/th&gt;&lt;td style=&quot;border: 1px solid rgb(167, 201, 66); border-collapse: collapse;&quot; border=&quot;1&quot;&gt;&lt;b&gt;Requisiti&lt;/b&gt;&lt;/td&gt;&lt;th border=&quot;1&quot; style=&quot;font-size: 20px; border: 1px solid rgb(167, 201, 66); border-collapse: collapse;&quot;&gt;Design&lt;/th&gt;&lt;td style=&quot;border: 1px solid rgb(167, 201, 66); border-collapse: collapse;&quot; border=&quot;1&quot;&gt;&lt;b&gt;Implementazione&lt;/b&gt;&lt;/td&gt;&lt;th border=&quot;1&quot; style=&quot;font-size: 20px; border: 1px solid rgb(167, 201, 66); border-collapse: collapse;&quot;&gt;Testing&amp;nbsp;&lt;/th&gt;&lt;td&gt;&lt;b&gt;Requisiti Connessi&lt;/b&gt;&lt;/td&gt;&lt;/tr&gt;&lt;tr style=&quot;font-size: 20px;&quot;&gt;&lt;td border=&quot;1&quot; style=&quot;background-color: rgb(167, 201, 66); color: rgb(255, 255, 255); font-size: 20px; border: 1px solid rgb(167, 201, 66); border-collapse: collapse;&quot;&gt;1&lt;/td&gt;&lt;td style=&quot;border: 1px solid rgb(167, 201, 66); border-collapse: collapse;&quot; border=&quot;1&quot;&gt;implementazione stack&lt;/td&gt;&lt;td border=&quot;1&quot; style=&quot;font-size: 20px; border: 1px solid rgb(167, 201, 66); border-collapse: collapse;&quot;&gt;classe StackCalc&amp;nbsp;&lt;/td&gt;&lt;td style=&quot;border: 1px solid rgb(167, 201, 66); border-collapse: collapse;&quot; border=&quot;1&quot;&gt;&lt;br&gt;&lt;/td&gt;&lt;td border=&quot;1&quot; style=&quot;font-size: 20px; border: 1px solid rgb(167, 201, 66); border-collapse: collapse;&quot;&gt;&lt;br style=&quot;font-size: 20px;&quot;&gt;&lt;/td&gt;&lt;td style=&quot;border: 1px solid rgb(167, 201, 66); border-collapse: collapse;&quot; border=&quot;1&quot;&gt;&lt;br&gt;&lt;/td&gt;&lt;/tr&gt;&lt;tr style=&quot;background-color: rgb(234, 242, 211); font-size: 20px;&quot;&gt;&lt;td border=&quot;1&quot; style=&quot;background-color: rgb(167, 201, 66); color: rgb(255, 255, 255); font-size: 20px; border: 1px solid rgb(167, 201, 66); border-collapse: collapse;&quot;&gt;2&lt;/td&gt;&lt;td border=&quot;1&quot; style=&quot;background-color: rgb(230, 230, 230); border: 1px solid rgb(167, 201, 66); border-collapse: collapse;&quot;&gt;supporto della notazione cartesiana per i numeri complessi&lt;/td&gt;&lt;td border=&quot;1&quot; style=&quot;font-size: 20px; background-color: rgb(230, 230, 230); border: 1px solid rgb(167, 201, 66); border-collapse: collapse;&quot;&gt;classe Number&lt;/td&gt;&lt;td style=&quot;border: 1px solid rgb(167, 201, 66); border-collapse: collapse; background-color: rgb(230, 230, 230);&quot; border=&quot;1&quot;&gt;&lt;br&gt;&lt;/td&gt;&lt;td border=&quot;1&quot; style=&quot;font-size: 20px; background-color: rgb(230, 230, 230); border: 1px solid rgb(167, 201, 66); border-collapse: collapse;&quot;&gt;&lt;br style=&quot;font-size: 20px;&quot;&gt;&lt;/td&gt;&lt;td style=&quot;background-color: rgb(230, 230, 230); border: 1px solid rgb(167, 201, 66); border-collapse: collapse;&quot; border=&quot;1&quot;&gt;&lt;br&gt;&lt;/td&gt;&lt;/tr&gt;&lt;tr style=&quot;font-size: 20px;&quot;&gt;&lt;td border=&quot;1&quot; style=&quot;background-color: rgb(167, 201, 66); color: rgb(255, 255, 255); font-size: 20px; border: 1px solid rgb(167, 201, 66); border-collapse: collapse;&quot;&gt;3.1&lt;/td&gt;&lt;td style=&quot;border: 1px solid rgb(167, 201, 66); border-collapse: collapse;&quot; border=&quot;1&quot;&gt;visualizzazione di 12 elementi sullo stack&amp;nbsp;&lt;/td&gt;&lt;td border=&quot;1&quot; style=&quot;font-size: 20px; border: 1px solid rgb(167, 201, 66); border-collapse: collapse;&quot;&gt;classe CalculatorViewController&lt;/td&gt;&lt;td style=&quot;border: 1px solid rgb(167, 201, 66); border-collapse: collapse;&quot; border=&quot;1&quot;&gt;&lt;br&gt;&lt;/td&gt;&lt;td border=&quot;1&quot; style=&quot;font-size: 20px; border: 1px solid rgb(167, 201, 66); border-collapse: collapse;&quot;&gt;&lt;br style=&quot;font-size: 20px;&quot;&gt;&lt;/td&gt;&lt;td style=&quot;border: 1px solid rgb(167, 201, 66); border-collapse: collapse;&quot; border=&quot;1&quot;&gt;1&lt;/td&gt;&lt;/tr&gt;&lt;tr style=&quot;background-color: rgb(234, 242, 211); font-size: 20px;&quot;&gt;&lt;td border=&quot;1&quot; style=&quot;background-color: rgb(167, 201, 66); color: rgb(255, 255, 255); font-size: 20px; border: 1px solid rgb(167, 201, 66); border-collapse: collapse;&quot;&gt;3.2&lt;/td&gt;&lt;td border=&quot;1&quot; style=&quot;background-color: rgb(230, 230, 230); border: 1px solid rgb(167, 201, 66); border-collapse: collapse;&quot;&gt;visualizzazione input utente&amp;nbsp;&lt;/td&gt;&lt;td border=&quot;1&quot; style=&quot;font-size: 20px; background-color: rgb(230, 230, 230); border: 1px solid rgb(167, 201, 66); border-collapse: collapse;&quot;&gt;classe CalculatorViewController&lt;/td&gt;&lt;td border=&quot;1&quot; style=&quot;background-color: rgb(230, 230, 230); border: 1px solid rgb(167, 201, 66); border-collapse: collapse;&quot;&gt;&lt;br&gt;&lt;/td&gt;&lt;td border=&quot;1&quot; style=&quot;font-size: 20px; background-color: rgb(230, 230, 230); border: 1px solid rgb(167, 201, 66); border-collapse: collapse;&quot;&gt;&lt;br style=&quot;font-size: 20px;&quot;&gt;&lt;/td&gt;&lt;td style=&quot;background-color: rgb(230, 230, 230); border: 1px solid rgb(167, 201, 66); border-collapse: collapse;&quot; border=&quot;1&quot;&gt;&lt;br&gt;&lt;/td&gt;&lt;/tr&gt;&lt;tr&gt;&lt;td border=&quot;1&quot; style=&quot;background-color: rgb(167, 201, 66); border: 1px solid rgb(167, 201, 66); border-collapse: collapse;&quot;&gt;&lt;font color=&quot;#ffffff&quot;&gt;3.3&lt;/font&gt;&lt;/td&gt;&lt;td style=&quot;border: 1px solid rgb(167, 201, 66); border-collapse: collapse;&quot; border=&quot;1&quot;&gt;visualizzazione variabili&amp;nbsp;&lt;/td&gt;&lt;td style=&quot;border: 1px solid rgb(167, 201, 66); border-collapse: collapse;&quot; border=&quot;1&quot;&gt;classe CalculatorViewController&lt;/td&gt;&lt;td style=&quot;border: 1px solid rgb(167, 201, 66); border-collapse: collapse;&quot; border=&quot;1&quot;&gt;&lt;br&gt;&lt;/td&gt;&lt;td style=&quot;border: 1px solid rgb(167, 201, 66); border-collapse: collapse;&quot; border=&quot;1&quot;&gt;&lt;br&gt;&lt;/td&gt;&lt;td style=&quot;border: 1px solid rgb(167, 201, 66); border-collapse: collapse;&quot; border=&quot;1&quot;&gt;&lt;br&gt;&lt;/td&gt;&lt;/tr&gt;&lt;tr&gt;&lt;td border=&quot;1&quot; style=&quot;background-color: rgb(167, 201, 66); border: 1px solid rgb(167, 201, 66); border-collapse: collapse;&quot;&gt;&lt;font color=&quot;#ffffff&quot;&gt;3.4&lt;/font&gt;&lt;/td&gt;&lt;td style=&quot;border: 1px solid rgb(167, 201, 66); border-collapse: collapse; background-color: rgb(230, 230, 230);&quot; border=&quot;1&quot;&gt;bottoni manipolazione stack&amp;nbsp;&lt;/td&gt;&lt;td style=&quot;border: 1px solid rgb(167, 201, 66); border-collapse: collapse; background-color: rgb(230, 230, 230);&quot; border=&quot;1&quot;&gt;classe CalculatorViewController&lt;/td&gt;&lt;td style=&quot;border: 1px solid rgb(167, 201, 66); border-collapse: collapse; background-color: rgb(230, 230, 230);&quot; border=&quot;1&quot;&gt;&lt;br&gt;&lt;/td&gt;&lt;td style=&quot;border: 1px solid rgb(167, 201, 66); border-collapse: collapse; background-color: rgb(230, 230, 230);&quot; border=&quot;1&quot;&gt;&lt;br&gt;&lt;/td&gt;&lt;td style=&quot;background-color: rgb(230, 230, 230); border: 1px solid rgb(167, 201, 66); border-collapse: collapse;&quot; border=&quot;1&quot;&gt;1&lt;/td&gt;&lt;/tr&gt;&lt;tr&gt;&lt;td border=&quot;1&quot; style=&quot;background-color: rgb(167, 201, 66); border: 1px solid rgb(167, 201, 66); border-collapse: collapse;&quot;&gt;&lt;font color=&quot;#ffffff&quot;&gt;3.5&lt;/font&gt;&lt;/td&gt;&lt;td style=&quot;border: 1px solid rgb(167, 201, 66); border-collapse: collapse;&quot; border=&quot;1&quot;&gt;bottoni di: numeri, variabili,&amp;nbsp; operazioni binarie, &quot;j&quot;&lt;/td&gt;&lt;td style=&quot;border: 1px solid rgb(167, 201, 66); border-collapse: collapse;&quot; border=&quot;1&quot;&gt;classe CalculatorViewController&lt;br&gt;&lt;/td&gt;&lt;td style=&quot;border: 1px solid rgb(167, 201, 66); border-collapse: collapse;&quot; border=&quot;1&quot;&gt;&lt;br&gt;&lt;/td&gt;&lt;td style=&quot;border: 1px solid rgb(167, 201, 66); border-collapse: collapse;&quot; border=&quot;1&quot;&gt;&lt;br&gt;&lt;/td&gt;&lt;td style=&quot;border: 1px solid rgb(167, 201, 66); border-collapse: collapse;&quot; border=&quot;1&quot;&gt;4.1, 4.2, 4.3, 4.4, 7&lt;/td&gt;&lt;/tr&gt;&lt;tr&gt;&lt;td border=&quot;1&quot; style=&quot;background-color: rgb(167, 201, 66); border: 1px solid rgb(167, 201, 66); border-collapse: collapse;&quot;&gt;&lt;font color=&quot;#ffffff&quot;&gt;3.6&lt;/font&gt;&lt;/td&gt;&lt;td style=&quot;border: 1px solid rgb(167, 201, 66); border-collapse: collapse; background-color: rgb(230, 230, 230);&quot; border=&quot;1&quot;&gt;bottoni operazioni unarie&amp;nbsp;&lt;/td&gt;&lt;td style=&quot;border: 1px solid rgb(167, 201, 66); border-collapse: collapse; background-color: rgb(230, 230, 230);&quot; border=&quot;1&quot;&gt;classe CalculatorViewController&lt;br&gt;&lt;/td&gt;&lt;td style=&quot;border: 1px solid rgb(167, 201, 66); border-collapse: collapse; background-color: rgb(230, 230, 230);&quot; border=&quot;1&quot;&gt;&lt;br&gt;&lt;/td&gt;&lt;td style=&quot;border: 1px solid rgb(167, 201, 66); border-collapse: collapse; background-color: rgb(230, 230, 230);&quot; border=&quot;1&quot;&gt;&lt;br&gt;&lt;/td&gt;&lt;td style=&quot;background-color: rgb(230, 230, 230); border: 1px solid rgb(167, 201, 66); border-collapse: collapse;&quot; border=&quot;1&quot;&gt;4.5, 4.6&lt;/td&gt;&lt;/tr&gt;&lt;tr style=&quot;font-size: 20px;&quot;&gt;&lt;td border=&quot;1&quot; style=&quot;background-color: rgb(167, 201, 66); color: rgb(255, 255, 255); font-size: 20px; border: 1px solid rgb(167, 201, 66); border-collapse: collapse;&quot;&gt;4.1&lt;/td&gt;&lt;td style=&quot;border: 1px solid rgb(167, 201, 66); border-collapse: collapse;&quot; border=&quot;1&quot;&gt;addizione&lt;/td&gt;&lt;td border=&quot;1&quot; style=&quot;font-size: 20px; border: 1px solid rgb(167, 201, 66); border-collapse: collapse;&quot;&gt;classe Operations&lt;/td&gt;&lt;td style=&quot;border: 1px solid rgb(167, 201, 66); border-collapse: collapse;&quot; border=&quot;1&quot;&gt;&lt;br&gt;&lt;/td&gt;&lt;td border=&quot;1&quot; style=&quot;font-size: 20px; border: 1px solid rgb(167, 201, 66); border-collapse: collapse;&quot;&gt;&lt;br style=&quot;font-size: 20px;&quot;&gt;&lt;/td&gt;&lt;td style=&quot;border: 1px solid rgb(167, 201, 66); border-collapse: collapse;&quot; border=&quot;1&quot;&gt;1, 2, 5, 3.5&lt;/td&gt;&lt;/tr&gt;&lt;tr&gt;&lt;td border=&quot;1&quot; style=&quot;background-color: rgb(167, 201, 66); border-collapse: collapse; border: 1px solid rgb(167, 201, 66);&quot;&gt;&lt;font color=&quot;#ffffff&quot;&gt;4.2&lt;/font&gt;&lt;/td&gt;&lt;td border=&quot;1&quot; style=&quot;background-color: rgb(230, 230, 230); border-collapse: collapse; border: 1px solid rgb(167, 201, 66);&quot;&gt;sottrazione&lt;/td&gt;&lt;td border=&quot;1&quot; style=&quot;background-color: rgb(230, 230, 230); border-collapse: collapse; border: 1px solid rgb(167, 201, 66);&quot;&gt;classe Operations&lt;br&gt;&lt;/td&gt;&lt;td border=&quot;1&quot; style=&quot;background-color: rgb(230, 230, 230); border: 1px solid rgb(167, 201, 66); border-collapse: collapse;&quot;&gt;&lt;br&gt;&lt;/td&gt;&lt;td border=&quot;1&quot; style=&quot;background-color: rgb(230, 230, 230); border: 1px solid rgb(167, 201, 66); border-collapse: collapse;&quot;&gt;&lt;br&gt;&lt;/td&gt;&lt;td style=&quot;background-color: rgb(230, 230, 230); border: 1px solid rgb(167, 201, 66); border-collapse: collapse;&quot; border=&quot;1&quot;&gt;1, 2, 5, 3.5&lt;br&gt;&lt;/td&gt;&lt;/tr&gt;&lt;tr&gt;&lt;td border=&quot;1&quot; style=&quot;background-color: rgb(167, 201, 66); border: 1px solid rgb(167, 201, 66); border-collapse: collapse;&quot;&gt;&lt;font color=&quot;#ffffff&quot;&gt;4.3&lt;/font&gt;&lt;/td&gt;&lt;td style=&quot;border: 1px solid rgb(167, 201, 66); border-collapse: collapse;&quot; border=&quot;1&quot;&gt;moltiplicazione&lt;/td&gt;&lt;td style=&quot;border: 1px solid rgb(167, 201, 66); border-collapse: collapse;&quot; border=&quot;1&quot;&gt;classe Operations&lt;br&gt;&lt;/td&gt;&lt;td style=&quot;border: 1px solid rgb(167, 201, 66); border-collapse: collapse;&quot; border=&quot;1&quot;&gt;&lt;br&gt;&lt;/td&gt;&lt;td style=&quot;border: 1px solid rgb(167, 201, 66); border-collapse: collapse;&quot; border=&quot;1&quot;&gt;&lt;br&gt;&lt;/td&gt;&lt;td style=&quot;border: 1px solid rgb(167, 201, 66); border-collapse: collapse;&quot; border=&quot;1&quot;&gt;1, 2, 5, 3.5&lt;br&gt;&lt;/td&gt;&lt;/tr&gt;&lt;tr&gt;&lt;td border=&quot;1&quot; style=&quot;background-color: rgb(167, 201, 66); border: 1px solid rgb(167, 201, 66); border-collapse: collapse;&quot;&gt;&lt;font color=&quot;#ffffff&quot;&gt;4.4&lt;/font&gt;&lt;/td&gt;&lt;td border=&quot;1&quot; style=&quot;background-color: rgb(230, 230, 230); border: 1px solid rgb(167, 201, 66); border-collapse: collapse;&quot;&gt;divisione&lt;/td&gt;&lt;td border=&quot;1&quot; style=&quot;background-color: rgb(230, 230, 230); border: 1px solid rgb(167, 201, 66); border-collapse: collapse;&quot;&gt;classe Operations&lt;br&gt;&lt;/td&gt;&lt;td border=&quot;1&quot; style=&quot;background-color: rgb(230, 230, 230); border: 1px solid rgb(167, 201, 66); border-collapse: collapse;&quot;&gt;&lt;br&gt;&lt;/td&gt;&lt;td border=&quot;1&quot; style=&quot;background-color: rgb(230, 230, 230); border: 1px solid rgb(167, 201, 66); border-collapse: collapse;&quot;&gt;&lt;br&gt;&lt;/td&gt;&lt;td style=&quot;background-color: rgb(230, 230, 230); border: 1px solid rgb(167, 201, 66); border-collapse: collapse;&quot; border=&quot;1&quot;&gt;1, 2, 5, 3.5&lt;br&gt;&lt;/td&gt;&lt;/tr&gt;&lt;tr&gt;&lt;td border=&quot;1&quot; style=&quot;background-color: rgb(167, 201, 66); border: 1px solid rgb(167, 201, 66); border-collapse: collapse;&quot;&gt;&lt;font color=&quot;#ffffff&quot;&gt;4.5&lt;/font&gt;&lt;/td&gt;&lt;td style=&quot;border: 1px solid rgb(167, 201, 66); border-collapse: collapse;&quot; border=&quot;1&quot;&gt;radice quadrata&lt;/td&gt;&lt;td style=&quot;border: 1px solid rgb(167, 201, 66); border-collapse: collapse;&quot; border=&quot;1&quot;&gt;classe Operations&lt;br&gt;&lt;/td&gt;&lt;td style=&quot;border: 1px solid rgb(167, 201, 66); border-collapse: collapse;&quot; border=&quot;1&quot;&gt;&lt;br&gt;&lt;/td&gt;&lt;td style=&quot;border: 1px solid rgb(167, 201, 66); border-collapse: collapse;&quot; border=&quot;1&quot;&gt;&lt;br&gt;&lt;/td&gt;&lt;td style=&quot;border: 1px solid rgb(167, 201, 66); border-collapse: collapse;&quot; border=&quot;1&quot;&gt;1, 2, 5, 3.6&lt;br&gt;&lt;/td&gt;&lt;/tr&gt;&lt;tr&gt;&lt;td border=&quot;1&quot; style=&quot;background-color: rgb(167, 201, 66); border: 1px solid rgb(167, 201, 66); border-collapse: collapse;&quot;&gt;&lt;font color=&quot;#ffffff&quot;&gt;4.6&lt;/font&gt;&lt;/td&gt;&lt;td border=&quot;1&quot; style=&quot;background-color: rgb(230, 230, 230); border: 1px solid rgb(167, 201, 66); border-collapse: collapse;&quot;&gt;inversione del segno&amp;nbsp;&lt;/td&gt;&lt;td border=&quot;1&quot; style=&quot;background-color: rgb(230, 230, 230); border: 1px solid rgb(167, 201, 66); border-collapse: collapse;&quot;&gt;classe Operations&lt;br&gt;&lt;/td&gt;&lt;td border=&quot;1&quot; style=&quot;background-color: rgb(230, 230, 230); border: 1px solid rgb(167, 201, 66); border-collapse: collapse;&quot;&gt;&lt;br&gt;&lt;/td&gt;&lt;td border=&quot;1&quot; style=&quot;background-color: rgb(230, 230, 230); border: 1px solid rgb(167, 201, 66); border-collapse: collapse;&quot;&gt;&lt;br&gt;&lt;/td&gt;&lt;td style=&quot;background-color: rgb(230, 230, 230); border: 1px solid rgb(167, 201, 66); border-collapse: collapse;&quot; border=&quot;1&quot;&gt;1, 2, 5, 3.6&lt;br&gt;&lt;/td&gt;&lt;/tr&gt;&lt;tr&gt;&lt;td border=&quot;1&quot; style=&quot;background-color: rgb(167, 201, 66); border: 1px solid rgb(167, 201, 66); border-collapse: collapse;&quot;&gt;&lt;font color=&quot;#ffffff&quot;&gt;5&lt;/font&gt;&lt;/td&gt;&lt;td style=&quot;border: 1px solid rgb(167, 201, 66); border-collapse: collapse;&quot; border=&quot;1&quot;&gt;esecuzione operazioni in ordine di inserimento input&amp;nbsp;&lt;/td&gt;&lt;td style=&quot;border: 1px solid rgb(167, 201, 66); border-collapse: collapse;&quot; border=&quot;1&quot;&gt;classe CalculatorViewController&lt;br&gt;&lt;/td&gt;&lt;td style=&quot;border: 1px solid rgb(167, 201, 66); border-collapse: collapse;&quot; border=&quot;1&quot;&gt;&lt;br&gt;&lt;/td&gt;&lt;td style=&quot;border: 1px solid rgb(167, 201, 66); border-collapse: collapse;&quot; border=&quot;1&quot;&gt;&lt;br&gt;&lt;/td&gt;&lt;td style=&quot;border: 1px solid rgb(167, 201, 66); border-collapse: collapse;&quot; border=&quot;1&quot;&gt;&lt;br&gt;&lt;/td&gt;&lt;/tr&gt;&lt;tr style=&quot;background-color: rgb(234, 242, 211); font-size: 20px;&quot;&gt;&lt;td border=&quot;1&quot; style=&quot;background-color: rgb(167, 201, 66); color: rgb(255, 255, 255); font-size: 20px; border: 1px solid rgb(167, 201, 66); border-collapse: collapse;&quot;&gt;6.1&lt;/td&gt;&lt;td border=&quot;1&quot; style=&quot;background-color: rgb(230, 230, 230); border: 1px solid rgb(167, 201, 66); border-collapse: collapse;&quot;&gt;clear&lt;/td&gt;&lt;td border=&quot;1&quot; style=&quot;font-size: 20px; background-color: rgb(230, 230, 230); border: 1px solid rgb(167, 201, 66); border-collapse: collapse;&quot;&gt;classe Commands&lt;br style=&quot;font-size: 20px;&quot;&gt;&lt;/td&gt;&lt;td border=&quot;1&quot; style=&quot;background-color: rgb(230, 230, 230); border: 1px solid rgb(167, 201, 66); border-collapse: collapse;&quot;&gt;&lt;br&gt;&lt;/td&gt;&lt;td border=&quot;1&quot; style=&quot;font-size: 20px; background-color: rgb(230, 230, 230); border: 1px solid rgb(167, 201, 66); border-collapse: collapse;&quot;&gt;&lt;br style=&quot;font-size: 20px;&quot;&gt;&lt;/td&gt;&lt;td style=&quot;background-color: rgb(230, 230, 230); border: 1px solid rgb(167, 201, 66); border-collapse: collapse;&quot; border=&quot;1&quot;&gt;1, 2, 3.4&lt;br&gt;&lt;/td&gt;&lt;/tr&gt;&lt;tr&gt;&lt;td border=&quot;1&quot; style=&quot;background-color: rgb(167, 201, 66); border: 1px solid rgb(167, 201, 66); border-collapse: collapse;&quot;&gt;&lt;font color=&quot;#ffffff&quot;&gt;6.2&lt;/font&gt;&lt;/td&gt;&lt;td border=&quot;1&quot; style=&quot;background-color: rgb(255, 255, 255); border: 1px solid rgb(167, 201, 66); border-collapse: collapse;&quot;&gt;drop&lt;/td&gt;&lt;td border=&quot;1&quot; style=&quot;background-color: rgb(255, 255, 255); border: 1px solid rgb(167, 201, 66); border-collapse: collapse;&quot;&gt;classe Commands&lt;br&gt;&lt;/td&gt;&lt;td border=&quot;1&quot; style=&quot;background-color: rgb(255, 255, 255); border: 1px solid rgb(167, 201, 66); border-collapse: collapse;&quot;&gt;&lt;br&gt;&lt;/td&gt;&lt;td style=&quot;border: 1px solid rgb(167, 201, 66); border-collapse: collapse;&quot; border=&quot;1&quot;&gt;&lt;br&gt;&lt;/td&gt;&lt;td style=&quot;border: 1px solid rgb(167, 201, 66); border-collapse: collapse;&quot; border=&quot;1&quot;&gt;1, 2, 3.4&lt;br&gt;&lt;/td&gt;&lt;/tr&gt;&lt;tr&gt;&lt;td border=&quot;1&quot; style=&quot;background-color: rgb(167, 201, 66); border: 1px solid rgb(167, 201, 66); border-collapse: collapse;&quot;&gt;&lt;font color=&quot;#ffffff&quot;&gt;6.3&lt;/font&gt;&lt;/td&gt;&lt;td style=&quot;border-collapse: collapse; border: 1px solid rgb(167, 201, 66); background-color: rgb(230, 230, 230);&quot; border=&quot;1&quot;&gt;dup&lt;/td&gt;&lt;td style=&quot;border: 1px solid rgb(167, 201, 66); border-collapse: collapse; background-color: rgb(230, 230, 230);&quot; border=&quot;1&quot;&gt;classe Commands&lt;br&gt;&lt;/td&gt;&lt;td style=&quot;border: 1px solid rgb(167, 201, 66); border-collapse: collapse; background-color: rgb(230, 230, 230);&quot; border=&quot;1&quot;&gt;&lt;br&gt;&lt;/td&gt;&lt;td style=&quot;border: 1px solid rgb(167, 201, 66); border-collapse: collapse; background-color: rgb(230, 230, 230);&quot; border=&quot;1&quot;&gt;&lt;br&gt;&lt;/td&gt;&lt;td style=&quot;background-color: rgb(230, 230, 230); border: 1px solid rgb(167, 201, 66); border-collapse: collapse;&quot; border=&quot;1&quot;&gt;1, 2, 3.4&lt;br&gt;&lt;/td&gt;&lt;/tr&gt;&lt;tr&gt;&lt;td border=&quot;1&quot; style=&quot;background-color: rgb(167, 201, 66); border: 1px solid rgb(167, 201, 66); border-collapse: collapse;&quot;&gt;&lt;font color=&quot;#ffffff&quot;&gt;6.4&lt;/font&gt;&lt;/td&gt;&lt;td border=&quot;1&quot; style=&quot;background-color: rgb(255, 255, 255); border: 1px solid rgb(167, 201, 66); border-collapse: collapse;&quot;&gt;swap&lt;/td&gt;&lt;td border=&quot;1&quot; style=&quot;background-color: rgb(255, 255, 255); border: 1px solid rgb(167, 201, 66); border-collapse: collapse;&quot;&gt;classe Commands&lt;br&gt;&lt;/td&gt;&lt;td style=&quot;border: 1px solid rgb(167, 201, 66); border-collapse: collapse;&quot; border=&quot;1&quot;&gt;&lt;br&gt;&lt;/td&gt;&lt;td style=&quot;border: 1px solid rgb(167, 201, 66); border-collapse: collapse;&quot; border=&quot;1&quot;&gt;&lt;br&gt;&lt;/td&gt;&lt;td style=&quot;border: 1px solid rgb(167, 201, 66); border-collapse: collapse;&quot; border=&quot;1&quot;&gt;1, 2, 3.4&lt;br&gt;&lt;/td&gt;&lt;/tr&gt;&lt;tr&gt;&lt;td border=&quot;1&quot; style=&quot;background-color: rgb(167, 201, 66); border: 1px solid rgb(167, 201, 66); border-collapse: collapse;&quot;&gt;&lt;font color=&quot;#ffffff&quot;&gt;6.5&lt;/font&gt;&lt;/td&gt;&lt;td style=&quot;border: 1px solid rgb(167, 201, 66); border-collapse: collapse; background-color: rgb(230, 230, 230);&quot; border=&quot;1&quot;&gt;over&lt;/td&gt;&lt;td style=&quot;border: 1px solid rgb(167, 201, 66); border-collapse: collapse; background-color: rgb(230, 230, 230);&quot; border=&quot;1&quot;&gt;classe Commands&lt;br&gt;&lt;/td&gt;&lt;td style=&quot;border: 1px solid rgb(167, 201, 66); border-collapse: collapse; background-color: rgb(230, 230, 230);&quot; border=&quot;1&quot;&gt;&lt;br&gt;&lt;/td&gt;&lt;td style=&quot;border: 1px solid rgb(167, 201, 66); border-collapse: collapse; background-color: rgb(230, 230, 230);&quot; border=&quot;1&quot;&gt;&lt;br&gt;&lt;/td&gt;&lt;td style=&quot;background-color: rgb(230, 230, 230); border: 1px solid rgb(167, 201, 66); border-collapse: collapse;&quot; border=&quot;1&quot;&gt;1, 2, 3.4&lt;br&gt;&lt;/td&gt;&lt;/tr&gt;&lt;tr style=&quot;font-size: 20px;&quot;&gt;&lt;td border=&quot;1&quot; style=&quot;background-color: rgb(167, 201, 66); color: rgb(255, 255, 255); font-size: 20px; border: 1px solid rgb(167, 201, 66); border-collapse: collapse;&quot;&gt;7&lt;/td&gt;&lt;td border=&quot;1&quot; style=&quot;background-color: rgb(255, 255, 255); border: 1px solid rgb(167, 201, 66); border-collapse: collapse;&quot;&gt;supporto di 26 variabili&amp;nbsp;&lt;/td&gt;&lt;td border=&quot;1&quot; style=&quot;font-size: 20px; background-color: rgb(255, 255, 255); border: 1px solid rgb(167, 201, 66); border-collapse: collapse;&quot;&gt;classe Variables&lt;br style=&quot;font-size: 20px;&quot;&gt;&lt;/td&gt;&lt;td style=&quot;border: 1px solid rgb(167, 201, 66); border-collapse: collapse;&quot; border=&quot;1&quot;&gt;&lt;br&gt;&lt;/td&gt;&lt;td border=&quot;1&quot; style=&quot;font-size: 20px; border: 1px solid rgb(167, 201, 66); border-collapse: collapse;&quot;&gt;&lt;br style=&quot;font-size: 20px;&quot;&gt;&lt;/td&gt;&lt;td style=&quot;border: 1px solid rgb(167, 201, 66); border-collapse: collapse;&quot; border=&quot;1&quot;&gt;&lt;br&gt;&lt;/td&gt;&lt;/tr&gt;&lt;tr style=&quot;background-color: rgb(234, 242, 211); font-size: 20px;&quot;&gt;&lt;td border=&quot;1&quot; style=&quot;background-color: rgb(167, 201, 66); color: rgb(255, 255, 255); font-size: 20px; border: 1px solid rgb(167, 201, 66); border-collapse: collapse;&quot;&gt;8.1&lt;/td&gt;&lt;td border=&quot;1&quot; style=&quot;background-color: rgb(230, 230, 230); border: 1px solid rgb(167, 201, 66); border-collapse: collapse;&quot;&gt;&amp;gt;x&lt;/td&gt;&lt;td border=&quot;1&quot; style=&quot;font-size: 20px; background-color: rgb(230, 230, 230); border: 1px solid rgb(167, 201, 66); border-collapse: collapse;&quot;&gt;classe Variables&lt;/td&gt;&lt;td border=&quot;1&quot; style=&quot;background-color: rgb(230, 230, 230); border: 1px solid rgb(167, 201, 66); border-collapse: collapse;&quot;&gt;&lt;br&gt;&lt;/td&gt;&lt;td border=&quot;1&quot; style=&quot;font-size: 20px; background-color: rgb(230, 230, 230); border: 1px solid rgb(167, 201, 66); border-collapse: collapse;&quot;&gt;&lt;br style=&quot;font-size: 20px;&quot;&gt;&lt;/td&gt;&lt;td style=&quot;background-color: rgb(230, 230, 230); border: 1px solid rgb(167, 201, 66); border-collapse: collapse;&quot; border=&quot;1&quot;&gt;1, 2, 7, 3.5&lt;/td&gt;&lt;/tr&gt;&lt;tr style=&quot;font-size: 20px;&quot;&gt;&lt;td border=&quot;1&quot; style=&quot;background-color: rgb(167, 201, 66); color: rgb(255, 255, 255); font-size: 20px; border: 1px solid rgb(167, 201, 66); border-collapse: collapse;&quot;&gt;8.2&lt;/td&gt;&lt;td border=&quot;1&quot; style=&quot;background-color: rgb(255, 255, 255); border: 1px solid rgb(167, 201, 66); border-collapse: collapse;&quot;&gt;&amp;lt;x&lt;/td&gt;&lt;td border=&quot;1&quot; style=&quot;font-size: 20px; background-color: rgb(255, 255, 255); border: 1px solid rgb(167, 201, 66); border-collapse: collapse;&quot;&gt;classe Variables&lt;br style=&quot;font-size: 20px;&quot;&gt;&lt;/td&gt;&lt;td style=&quot;border: 1px solid rgb(167, 201, 66); border-collapse: collapse;&quot; border=&quot;1&quot;&gt;&lt;br&gt;&lt;/td&gt;&lt;td border=&quot;1&quot; style=&quot;font-size: 20px; border: 1px solid rgb(167, 201, 66); border-collapse: collapse;&quot;&gt;&lt;br style=&quot;font-size: 20px;&quot;&gt;&lt;/td&gt;&lt;td style=&quot;border: 1px solid rgb(167, 201, 66); border-collapse: collapse;&quot; border=&quot;1&quot;&gt;1, 2, 7, 3.5&lt;br&gt;&lt;/td&gt;&lt;/tr&gt;&lt;tr style=&quot;background-color: rgb(234, 242, 211); font-size: 20px;&quot;&gt;&lt;td border=&quot;1&quot; style=&quot;background-color: rgb(167, 201, 66); color: rgb(255, 255, 255); font-size: 20px; border: 1px solid rgb(167, 201, 66); border-collapse: collapse;&quot;&gt;8.3&lt;/td&gt;&lt;td border=&quot;1&quot; style=&quot;background-color: rgb(230, 230, 230); border: 1px solid rgb(167, 201, 66); border-collapse: collapse;&quot;&gt;+x&lt;/td&gt;&lt;td border=&quot;1&quot; style=&quot;font-size: 20px; background-color: rgb(230, 230, 230); border: 1px solid rgb(167, 201, 66); border-collapse: collapse;&quot;&gt;classe Variables&lt;br style=&quot;font-size: 20px;&quot;&gt;&lt;/td&gt;&lt;td border=&quot;1&quot; style=&quot;background-color: rgb(230, 230, 230); border: 1px solid rgb(167, 201, 66); border-collapse: collapse;&quot;&gt;&lt;br&gt;&lt;/td&gt;&lt;td border=&quot;1&quot; style=&quot;font-size: 20px; background-color: rgb(230, 230, 230); border: 1px solid rgb(167, 201, 66); border-collapse: collapse;&quot;&gt;&lt;br style=&quot;font-size: 20px;&quot;&gt;&lt;/td&gt;&lt;td style=&quot;background-color: rgb(230, 230, 230); border: 1px solid rgb(167, 201, 66); border-collapse: collapse;&quot; border=&quot;1&quot;&gt;1, 2, 7, 3.5&lt;br&gt;&lt;/td&gt;&lt;/tr&gt;&lt;tr&gt;&lt;td border=&quot;1&quot; style=&quot;background-color: rgb(167, 201, 66); border: 1px solid rgb(167, 201, 66); border-collapse: collapse;&quot;&gt;&lt;font color=&quot;#ffffff&quot;&gt;8.4&lt;/font&gt;&lt;/td&gt;&lt;td border=&quot;1&quot; style=&quot;background-color: rgb(255, 255, 255); border: 1px solid rgb(167, 201, 66); border-collapse: collapse;&quot;&gt;-x&lt;/td&gt;&lt;td border=&quot;1&quot; style=&quot;background-color: rgb(255, 255, 255); border: 1px solid rgb(167, 201, 66); border-collapse: collapse;&quot;&gt;classe Variables&lt;br&gt;&lt;/td&gt;&lt;td style=&quot;border: 1px solid rgb(167, 201, 66); border-collapse: collapse;&quot; border=&quot;1&quot;&gt;&lt;br&gt;&lt;/td&gt;&lt;td style=&quot;border: 1px solid rgb(167, 201, 66); border-collapse: collapse;&quot; border=&quot;1&quot;&gt;&lt;br&gt;&lt;/td&gt;&lt;td&gt;1, 2, 7, 3.5&lt;br&gt;&lt;/td&gt;&lt;/tr&gt;&lt;/tbody&gt;&lt;/table&gt;" style="text;html=1;strokeColor=#E6E6E6;fillColor=#FFFFFF;overflow=fill;rounded=0;shadow=0;fontSize=20;fontColor=#000000;fillStyle=solid;align=center;aspect=fixed;gradientColor=none;perimeterSpacing=0;" vertex="1" parent="1">
          <mxGeometry x="69" y="179.13" width="1615.74" height="978.35" as="geometry" />
        </mxCell>
        <mxCell id="1516e18e63f93b96-3" value="TRACEABILITY MATRIX&amp;nbsp;" style="text;strokeColor=none;fillColor=none;html=1;fontSize=34;fontStyle=1;verticalAlign=middle;align=center;rounded=0;shadow=1;" vertex="1" parent="1">
          <mxGeometry x="445" y="55.120000000000005" width="863.39" height="99.66" as="geometry" />
        </mxCell>
      </root>
    </mxGraphModel>
  </diagram>
</mxfile>
